PathFileType	4	(X/Y/Z)	/Users/visionmauri/1_1_1_f_Sports2D/1_1_1_f_Sports2D_px_person00.trc
DataRate	CameraRate	NumFrames	NumMarkers	Units	OrigDataRate	OrigDataStartFrame	OrigNumFrames
30.0	30.0	6	22	m	30.0	134	358
Frame#	Time	Hip			RHip			RKnee			RAnkle			RBigToe			RSmallToe			RHeel			LHip			LKnee			LAnkle			LBigToe			LSmallToe			LHeel			Neck			Head			Nose			RShoulder			RElbow			RWrist			LShoulder			LElbow			LWrist			
		X1	Y1	Z1	X2	Y2	Z2	X3	Y3	Z3	X4	Y4	Z4	X5	Y5	Z5	X6	Y6	Z6	X7	Y7	Z7	X8	Y8	Z8	X9	Y9	Z9	X10	Y10	Z10	X11	Y11	Z11	X12	Y12	Z12	X13	Y13	Z13	X14	Y14	Z14	X15	Y15	Z15	X16	Y16	Z16	X17	Y17	Z17	X18	Y18	Z18	X19	Y19	Z19	X20	Y20	Z20	X21	Y21	Z21	X22	Y22	Z22
134	4.4791783380018675	561.2155757073116	920.4322208637558	0.0	609.9776851851183	924.7576753044915	0.0	600.9856023391833	1154.0564736778201	0.0	585.3731781983698	1380.37721324583	0.0	567.3025924820909	1414.7137671797857	0.0	606.9434891250298	1426.4826946182234	0.0	580.5234457244434	1416.1260721201525	0.0	510.45320343985685	923.4540715688535	0.0	507.51433400389163	1098.7903140108474	0.0	515.4352891999188	1311.7732730694288	0.0	518.5318451429001	1376.422877337734	0.0	485.7114779805293	1377.8414948120062	0.0	521.5197400547836	1353.5474371727048	0.0	555.198910360685	649.0201112921035	0.0	531.3999043973621	537.2670992673253	0.0	508.1454792019519	602.7308415228949	0.0	650.4490038906266	688.3537520868101	0.0	700.4990245003783	834.4887351698839	0.0	697.8879563523584	927.0855101168694	0.0	471.5085114856127	686.8727744541937	0.0	432.4800490146124	829.0172610736427	0.0	437.40449043655053	829.1310386131283	0.0
135	4.512605042016807	560.214533012477	919.7036939465022	0.0	608.6559719230496	925.0634496792768	0.0	600.4044428763594	1151.0511809133502	0.0	585.5623481040149	1378.7438502225598	0.0	565.0919175797092	1414.7155801088713	0.0	605.4425155016105	1425.767129752043	0.0	581.5599261860596	1413.7020805385807	0.0	510.02030584831397	924.1849243714266	0.0	506.9362825886937	1098.9561707951232	0.0	514.9702792554607	1299.1764911723385	0.0	519.132590593576	1383.939843953437	0.0	484.9340781180075	1362.7371621748653	0.0	520.6568034740849	1337.751688173374	0.0	552.7436356320991	649.6147371464423	0.0	526.7409813257509	537.5358910148326	0.0	501.5114099865301	604.0787502033966	0.0	647.1455806784077	687.128790914423	0.0	698.7305909568993	829.5812978861653	0.0	697.7442567033444	925.3446582255262	0.0	470.5068695803815	687.9405158795034	0.0	432.23021226652054	830.1061690624342	0.0	435.6271958549768	829.9309011934896	0.0
136	4.546031746031746	559.500267735584	918.077196298735	0.0	607.6823740060596	924.8138171698031	0.0	600.8475031165885	1147.841280928006	0.0	585.6781633920342	1375.015711215642	0.0	564.5806745936239	1415.3772681161977	0.0	604.2074780976577	1424.161128683045	0.0	581.984526240545	1408.8029465482675	0.0	509.8394548252705	923.9051270217382	0.0	505.4736310538576	1098.2674530273632	0.0	514.0323360703214	1243.7906763726764	0.0	518.0226538429808	1359.7194624612503	0.0	483.74040809319865	1298.7686392239718	0.0	520.0772981975421	1266.4000653557398	0.0	550.3861558789883	650.5001790016001	0.0	521.9673909429478	538.1996547953663	0.0	496.0608664037962	606.0927207152475	0.0	643.9754709815015	685.8613411159149	0.0	697.0610215205869	825.3822431576165	0.0	697.6942366177091	924.3091594599675	0.0	469.0024443660526	688.283999866264	0.0	431.9671550228001	830.8374888619437	0.0	434.17212910109885	830.4554153533826	0.0
137	4.579458450046685	559.1821733033523	916.5036668801094	0.0	607.4041705415694	922.791953052112	0.0	602.8805901145332	1144.7537834725856	0.0	586.2732617671517	1367.2818541935221	0.0	564.6532773954877	1414.764221140813	0.0	603.7860991679534	1421.2705735562965	0.0	581.8240300555527	1400.4422445432726	0.0	509.7714885169413	922.4172384588998	0.0	503.94030326110084	1097.1648599493396	0.0	512.9180229909978	1163.062411897602	0.0	513.965908342681	1276.1744383537743	0.0	482.670266744685	1204.1091072917666	0.0	519.7485227952371	1167.4128229627086	0.0	547.9964469177993	650.8342184349546	0.0	517.4466626884894	539.2215265648268	0.0	491.5132789717763	607.4080983382884	0.0	641.1253176753	684.8742987641207	0.0	696.171161578812	823.2123515807597	0.0	697.8716159287227	924.7210680621296	0.0	467.6358845605781	688.2039533074585	0.0	431.7314527376385	830.3875082423015	0.0	433.5011330272767	830.7570858245167	0.0
138	4.612885154061624	558.9934164271458	914.9926965502545	0.0	607.3580059954941	919.2117594797571	0.0	605.7954231315038	1141.196908201355	0.0	588.3934719739899	1354.396505618489	0.0	564.514598236191	1413.172904725072	0.0	605.175715635314	1418.8191229923639	0.0	582.5849264042293	1387.304922521931	0.0	509.9083537655068	919.8547815860935	0.0	503.343322637752	1096.2311764070532	0.0	511.69001050921236	1106.9328766116657	0.0	508.561987204739	1183.575797973095	0.0	482.55364136232765	1150.7471816956745	0.0	518.7199653544991	1121.5322529392956	0.0	545.578064473826	650.8984426050575	0.0	513.0295448647948	540.2344059338174	0.0	487.9059295246831	607.5367641362072	0.0	638.1970192792113	684.5300901392252	0.0	695.4142242012633	821.7159956606855	0.0	698.2813338933229	924.926049778453	0.0	466.82575074294397	687.9207820180834	0.0	431.87955845887006	829.395293016446	0.0	432.71534639233664	832.7767921816667	0.0
139	4.646311858076563	558.2088681877623	914.349755895654	0.0	606.6817033817763	916.7275618944917	0.0	608.1604926851618	1136.2850995936772	0.0	592.5262660774024	1337.3937753309906	0.0	564.9420073272182	1412.1459950382664	0.0	608.203413971698	1417.4707817505957	0.0	585.3092774941368	1370.145657788577	0.0	510.2041880708483	918.1828900508666	0.0	503.67060521471427	1095.870830343246	0.0	510.69009157687043	1093.1877837988277	0.0	505.22986553154516	1178.0219874349445	0.0	483.972589320394	1172.068494149381	0.0	517.6184435753701	1155.273768153198	0.0	543.2023093873121	651.719507391585	0.0	508.4660779350901	541.0898498490238	0.0	485.5020364632004	607.3537711919054	0.0	634.6604887099219	684.7205958136469	0.0	694.197965350218	819.3111251254151	0.0	698.4155458403251	924.1007576829154	0.0	466.08349248833764	687.9765708696772	0.0	432.4036838025366	829.0423353452335	0.0	431.5147826719964	837.4085226344449	0.0
